HIERARCHY
ROOT SpineBase
{
  OFFSET 0.000000 0.000000 0.000000
  CHANNELS 6 Xposition Yposition Zposition Zrotation Xrotation Yrotation
  JOINT SpineMid
  {
    OFFSET -0.000000 31.868292 0.000000
    CHANNELS 3 Zrotation Xrotation Yrotation
    JOINT SpineShoulder
    {
      OFFSET 0.103743 23.625135 -0.942486
      CHANNELS 3 Zrotation Xrotation Yrotation
      JOINT Neck
      {
        OFFSET 0.061825 7.803309 -0.655820
        CHANNELS 3 Zrotation Xrotation Yrotation
        JOINT Head
        {
          OFFSET -5.273588 13.304458 0.427950
          CHANNELS 3 Zrotation Xrotation Yrotation
          End Site
          {
            OFFSET 0 0 0
          }
        }
      }
      JOINT ShoulderLeft
      {
        OFFSET -15.439919 -4.562966 7.026775
        CHANNELS 3 Zrotation Xrotation Yrotation
        JOINT ElbowLeft
        {
          OFFSET -2.981754 -27.021698 5.239385
          CHANNELS 3 Zrotation Xrotation Yrotation
          JOINT WristLeft
          {
            OFFSET 1.512894 -25.644522 -3.201968
            CHANNELS 3 Zrotation Xrotation Yrotation
            JOINT HandLeft
            {
              OFFSET 0.881435 -6.583656 -0.804557
              CHANNELS 3 Zrotation Xrotation Yrotation
              JOINT HandTipLeft
              {
                OFFSET 1.042686 -7.159272 -0.128485
                CHANNELS 3 Zrotation Xrotation Yrotation
                End Site
                {
                  OFFSET 0 0 0
                }
              }
              JOINT ThumbLeft
              {
                OFFSET 2.491765 0.651754 -3.689860
                CHANNELS 3 Zrotation Xrotation Yrotation
                End Site
                {
                  OFFSET 0 0 0
                }
              }
            }
          }
        }
      }
      JOINT ShoulderRight
      {
        OFFSET 11.917680 -4.585299 -9.099572
        CHANNELS 3 Zrotation Xrotation Yrotation
        JOINT ElbowRight
        {
          OFFSET 7.673734 -26.341638 -3.002687
          CHANNELS 3 Zrotation Xrotation Yrotation
          JOINT WristRight
          {
            OFFSET 1.884444 -22.743503 -6.957653
            CHANNELS 3 Zrotation Xrotation Yrotation
            JOINT HandRight
            {
              OFFSET -0.588674 -5.291578 0.434926
              CHANNELS 3 Zrotation Xrotation Yrotation
              JOINT HandTipRight
              {
                OFFSET -0.276748 -7.735555 -0.511245
                CHANNELS 3 Zrotation Xrotation Yrotation
                End Site
                {
                  OFFSET 0 0 0
                }
              }
              JOINT ThumbRight
              {
                OFFSET 2.221592 -1.832117 -1.730581
                CHANNELS 3 Zrotation Xrotation Yrotation
                End Site
                {
                  OFFSET 0 0 0
                }
              }
            }
          }
        }
      }
    }
  }
  JOINT HipLeft
  {
    OFFSET -6.418404 -0.190688 -0.220481
    CHANNELS 3 Zrotation Xrotation Yrotation
    JOINT KneeLeft
    {
      OFFSET 3.081808 -38.792529 6.925194
      CHANNELS 3 Zrotation Xrotation Yrotation
      JOINT AnkleLeft
      {
        OFFSET 7.608051 -35.926938 8.851426
        CHANNELS 3 Zrotation Xrotation Yrotation
        JOINT FootLeft
        {
          OFFSET -2.457338 -8.034237 -5.680844
          CHANNELS 3 Zrotation Xrotation Yrotation
          End Site
          {
            OFFSET 0 0 0
          }
        }
      }
    }
  }
  JOINT HipRight
  {
    OFFSET 6.892041 1.816989 -6.846653
    CHANNELS 3 Zrotation Xrotation Yrotation
    JOINT KneeRight
    {
      OFFSET 8.770537 -35.792020 -0.088440
      CHANNELS 3 Zrotation Xrotation Yrotation
      JOINT AnkleRight
      {
        OFFSET 8.583987 -37.369480 9.109352
        CHANNELS 3 Zrotation Xrotation Yrotation
        JOINT FootRight
        {
          OFFSET -2.157051 -6.779654 -8.033623
          CHANNELS 3 Zrotation Xrotation Yrotation
          End Site
          {
            OFFSET 0 0 0
          }
        }
      }
    }
  }
}
MOTION
Frames: 14
Frame Time: 0.033333
-28.522669 101.199843 333.635306 -7.684699 -0.729405 37.359148 -0.102161 -0.377835 -37.729799 0.420013 -0.129168 -0.304446 -5.638496 12.996178 7.487636 0.000000 0.000000 0.000000 -171.027005 -18.022489 -139.169957 10.370518 -5.506384 174.952714 33.806842 4.990711 143.819490 14.520821 31.000665 -63.796470 0.000000 0.000000 0.000000 0.000000 0.000000 0.000000 167.402918 19.139724 -62.885915 34.217023 13.301603 -110.439380 -3.981420 10.802817 86.856825 29.362259 21.915043 1.488688 0.000000 0.000000 0.000000 0.000000 0.000000 0.000000 11.968638 0.166546 -36.139325 -2.862748 -6.893682 -1.381622 2.546579 -1.630925 -0.189259 0.000000 0.000000 0.000000 10.445546 -2.979072 -36.157298 -2.479531 -3.179724 -0.846601 -13.197310 18.804078 9.600779 0.000000 0.000000 0.000000
-28.492106 101.011782 333.464076 -7.516996 -0.503018 35.616893 -0.162541 -0.437497 -35.971665 0.446383 -0.149190 -0.297061 -4.605316 13.092938 7.339377 0.000000 0.000000 0.000000 -169.338491 -18.523627 -134.925270 9.801439 -5.872737 -178.968193 29.793228 13.323844 -177.278292 30.788684 18.236856 -128.936063 0.000000 0.000000 0.000000 0.000000 0.000000 0.000000 168.554312 19.394829 -64.517715 36.261376 17.212898 -128.573693 0.327113 6.795888 108.896208 32.315386 19.609717 -3.137025 0.000000 0.000000 0.000000 0.000000 0.000000 0.000000 11.533327 0.120477 -34.424213 -2.872877 -6.673321 -1.368316 2.306125 -1.066072 -0.175599 0.000000 0.000000 0.000000 10.409048 -2.658014 -34.381250 -2.552663 -3.333664 -0.890009 -13.136010 18.862278 9.520008 0.000000 0.000000 0.000000
-28.444692 100.837288 333.280541 -7.309224 -0.297574 31.889838 -0.184733 -0.493055 -32.226951 0.493998 -0.205636 -0.287609 -4.170353 13.116095 7.238053 0.000000 0.000000 0.000000 -168.381543 -18.984804 -132.476699 8.398114 -5.258772 -169.249997 28.607706 16.526874 -168.621488 34.872079 5.535542 -175.837385 0.000000 0.000000 0.000000 0.000000 0.000000 0.000000 169.195151 19.753429 -65.908357 46.605009 20.536735 -170.696404 3.939120 5.878799 150.479710 29.915744 16.326590 -3.848865 0.000000 0.000000 0.000000 0.000000 0.000000 0.000000 10.887850 0.205384 -30.792210 -2.866688 -6.168981 -1.326606 1.701964 0.127041 -0.061305 0.000000 0.000000 0.000000 10.536070 -1.716460 -30.597941 -2.619330 -3.743958 -1.002576 -13.138014 18.872089 9.519725 0.000000 0.000000 0.000000
-28.472833 100.633441 333.131031 -7.236761 -0.174511 28.583715 -0.056537 -0.571237 -28.905672 0.564057 -0.194412 -0.272586 -4.352829 13.013286 7.198496 0.000000 0.000000 0.000000 -168.141945 -19.321647 -131.722541 4.928384 -3.394039 -152.490462 17.516693 25.950043 -127.370561 28.098459 -9.483656 129.171687 0.000000 0.000000 0.000000 0.000000 0.000000 0.000000 169.485270 20.353494 -67.251276 60.672655 8.195471 119.390688 14.651235 10.129381 -139.900206 29.643960 12.220878 -8.338975 0.000000 0.000000 0.000000 0.000000 0.000000 0.000000 10.536403 0.220392 -27.548537 -2.920152 -5.795398 -1.315712 0.900334 0.800159 0.385004 0.000000 0.000000 0.000000 10.819659 -0.962473 -27.244989 -2.814951 -4.083670 -1.101208 -13.168628 18.855977 9.556827 0.000000 0.000000 0.000000
-28.340714 100.518062 332.934446 -6.890374 0.012393 27.810823 -0.116491 -0.572870 -28.110507 0.582386 -0.252631 -0.260423 -4.568668 12.876024 7.126547 0.000000 0.000000 0.000000 -167.314997 -20.169972 -129.988445 4.949346 -4.838192 -152.252714 15.729901 26.846798 -120.830664 20.388423 -11.793715 103.592883 0.000000 0.000000 0.000000 0.000000 0.000000 0.000000 169.272550 19.859818 -66.432500 48.136362 -12.965967 36.225651 16.344668 27.404700 -47.697802 29.679019 3.748377 -14.617029 0.000000 0.000000 0.000000 0.000000 0.000000 0.000000 9.983519 0.173547 -26.813706 -2.895541 -5.686209 -1.315293 0.468648 2.626156 0.231840 0.000000 0.000000 0.000000 10.327369 -0.867710 -26.509006 -3.391097 -4.453424 -1.388153 -12.706563 19.211488 10.015723 0.000000 0.000000 0.000000
-28.181813 100.504547 332.744897 -6.492350 0.213265 29.820545 -0.297036 -0.510867 -30.100956 0.532895 -0.335452 -0.257281 -5.137086 12.572734 7.063377 0.000000 0.000000 0.000000 -168.408018 -18.910507 -130.961152 3.313588 -2.032590 -135.980262 36.198855 29.400390 -161.255362 31.678409 -7.438060 106.356085 0.000000 0.000000 0.000000 0.000000 0.000000 0.000000 169.462037 20.242223 -67.300043 33.374190 -12.119973 -10.204692 5.880175 32.686851 3.431334 28.220131 3.827041 -11.589746 0.000000 0.000000 0.000000 0.000000 0.000000 0.000000 9.538036 0.026267 -28.807210 -2.871887 -5.864595 -1.339854 -0.079916 3.638017 0.399947 0.000000 0.000000 0.000000 9.500565 -1.534216 -28.604962 -3.206623 -4.142944 -1.279015 -12.820287 19.286089 10.154712 0.000000 0.000000 0.000000
-27.912136 100.631265 332.533975 -5.963630 0.394337 33.086671 -0.482935 -0.407953 -33.344408 0.469260 -0.400825 -0.248752 -5.575014 12.213516 6.922545 0.000000 0.000000 0.000000 -170.204150 -19.048616 -134.953097 0.940851 0.217340 -108.293582 31.287799 22.941804 -147.601712 17.384785 -9.841509 77.039318 0.000000 0.000000 0.000000 0.000000 0.000000 0.000000 169.517797 20.515903 -67.948119 30.297503 -10.355213 -20.482645 -3.158472 34.236903 34.091710 30.822069 -6.737191 -21.939649 0.000000 0.000000 0.000000 0.000000 0.000000 0.000000 8.983728 0.008755 -32.078182 -2.774514 -6.173206 -1.363732 -0.634872 4.346872 0.691113 0.000000 0.000000 0.000000 8.201859 -2.362435 -32.044283 -2.860167 -3.595736 -1.108252 -12.949184 19.327363 10.358269 0.000000 0.000000 0.000000
-27.639427 100.792879 332.335207 -5.481630 0.531972 36.545650 -0.600671 -0.299281 -36.782469 0.395708 -0.435337 -0.239295 -6.017958 11.745962 6.728147 0.000000 0.000000 0.000000 -171.145383 -18.803728 -136.478325 2.551107 1.392910 -105.334056 16.242639 19.555974 -111.595504 6.740206 -6.426783 56.574857 0.000000 0.000000 0.000000 0.000000 0.000000 0.000000 169.750809 21.230326 -69.478394 29.572959 -9.395085 -23.503691 -8.083969 31.299619 47.457334 32.095139 -9.324061 -23.668810 0.000000 0.000000 0.000000 0.000000 0.000000 0.000000 8.542924 0.092176 -35.551102 -2.671390 -6.517064 -1.389350 -0.958316 4.718717 0.914417 0.000000 0.000000 0.000000 6.859192 -3.119944 -35.718283 -2.495436 -2.954740 -0.910416 -13.099732 19.338518 10.549824 0.000000 0.000000 0.000000
-27.429049 101.002234 332.175987 -5.122053 0.594674 39.999929 -0.625281 -0.203881 -40.219711 0.331680 -0.475782 -0.231292 -6.472158 11.333744 6.552339 0.000000 0.000000 0.000000 -171.883884 -18.451246 -137.442912 5.283602 2.050757 -112.195222 1.156159 7.762450 -57.781429 1.278047 4.446027 19.798950 0.000000 0.000000 0.000000 0.000000 0.000000 0.000000 170.051763 21.850867 -70.997615 33.154888 -11.037012 -11.896025 -19.107674 30.530182 82.253856 27.741991 -37.368841 -56.247951 0.000000 0.000000 0.000000 0.000000 0.000000 0.000000 8.365076 0.247002 -39.009919 -2.602416 -6.889986 -1.420571 -1.088590 4.850912 1.039866 0.000000 0.000000 0.000000 5.664638 -3.780774 -39.399146 -2.211486 -2.201037 -0.693946 -13.215393 19.244388 10.669255 0.000000 0.000000 0.000000
-27.286947 101.231758 332.063352 -4.905600 0.565302 43.147616 -0.562863 -0.144802 -43.355232 0.258640 -0.515659 -0.226997 -6.825003 10.978149 6.381433 0.000000 0.000000 0.000000 -173.984989 -18.787505 -142.739116 5.250956 3.566351 -110.264077 0.477565 -0.264935 -42.799837 0.642422 -1.661753 45.149852 0.000000 0.000000 0.000000 0.000000 0.000000 0.000000 170.466733 22.472004 -72.687881 35.312219 -11.611714 -5.004973 -20.601100 29.946925 87.312169 25.669776 -43.309180 -64.717045 0.000000 0.000000 0.000000 0.000000 0.000000 0.000000 8.459659 0.421499 -42.150167 -2.559306 -7.274044 -1.453875 -0.968349 4.605626 1.056288 0.000000 0.000000 0.000000 4.755691 -4.307874 -42.750837 -2.101320 -1.519325 -0.519636 -13.343443 19.056236 10.889516 0.000000 0.000000 0.000000
-27.244635 101.440918 332.014736 -4.854223 0.440797 45.547958 -0.401233 -0.130262 -45.747984 0.197941 -0.536271 -0.224569 -6.960703 10.692222 6.215438 0.000000 0.000000 0.000000 -174.633457 -19.354862 -144.588174 6.475022 2.863532 -118.938656 3.117360 -12.332317 -5.378174 0.173965 -1.343707 49.553185 0.000000 0.000000 0.000000 0.000000 0.000000 0.000000 171.227658 23.339176 -75.177033 38.676920 -12.070179 5.296390 -20.020760 30.903619 83.394928 28.148574 -45.146511 -64.229584 0.000000 0.000000 0.000000 0.000000 0.000000 0.000000 8.772591 0.564472 -44.534042 -2.519966 -7.618880 -1.478602 -0.587134 3.846702 0.990517 0.000000 0.000000 0.000000 4.322735 -4.681966 -45.282876 -2.113872 -1.082564 -0.405176 -13.533992 18.849057 11.156444 0.000000 0.000000 0.000000
-27.304438 101.621441 332.036755 -4.974950 0.219945 47.074586 -0.134251 -0.184413 -47.271684 0.177718 -0.536009 -0.220796 -7.096652 10.482780 6.082279 0.000000 0.000000 0.000000 -174.878237 -19.463062 -145.024138 7.815456 1.797587 -129.242979 20.059399 -19.579072 79.100437 -0.530577 10.737646 -4.528241 0.000000 0.000000 0.000000 0.000000 0.000000 0.000000 172.207472 24.289280 -78.129527 43.085223 -11.981592 18.447877 -9.582579 33.258874 35.541557 41.538173 -22.388876 -40.778527 0.000000 0.000000 0.000000 0.000000 0.000000 0.000000 9.289640 0.632890 -46.026932 -2.551701 -7.894376 -1.511329 0.077961 2.873269 0.774274 0.000000 0.000000 0.000000 4.443251 -4.932884 -46.845284 -2.272910 -0.690386 -0.311362 -13.656779 18.447014 11.266003 0.000000 0.000000 0.000000
-27.452467 101.724950 332.100301 -5.191714 -0.046987 46.215784 0.159624 -0.270022 -46.415393 0.178970 -0.523852 -0.217829 -7.184164 10.416638 6.013750 0.000000 0.000000 0.000000 -174.359152 -19.204826 -143.240659 9.525082 -0.120518 -142.965870 11.720231 -8.342683 -59.168876 6.718797 -5.392802 138.876808 0.000000 0.000000 0.000000 0.000000 0.000000 0.000000 172.992671 25.047088 -80.551028 44.971475 -11.544518 23.894369 -5.169189 33.479518 19.218236 41.740310 -14.242242 -34.747327 0.000000 0.000000 0.000000 0.000000 0.000000 0.000000 9.568726 0.654753 -45.176779 -2.606066 -7.779210 -1.512585 0.816709 1.754880 0.580444 0.000000 0.000000 0.000000 5.308348 -4.769866 -45.866028 -1.922442 -0.466652 -0.117915 -14.278102 17.810980 11.016795 0.000000 0.000000 0.000000
-27.723926 101.741350 332.219828 -5.576240 -0.358367 46.041458 0.489653 -0.386546 -46.251745 0.212795 -0.485636 -0.216790 -7.186361 10.451455 5.998923 0.000000 0.000000 0.000000 -172.948142 -18.557003 -138.964575 11.588646 -3.104227 -159.982751 34.675952 -12.406166 87.229286 -7.189282 23.509675 10.402958 0.000000 0.000000 0.000000 0.000000 0.000000 0.000000 173.550353 25.592143 -82.259043 44.808862 -11.315108 23.112773 -1.564734 33.066451 10.044734 39.991979 -9.392993 -33.277344 0.000000 0.000000 0.000000 0.000000 0.000000 0.000000 10.210845 0.552408 -44.954431 -2.714693 -7.822102 -1.534367 1.439744 0.513125 0.456235 0.000000 0.000000 0.000000 6.330566 -4.876996 -45.569316 -2.328042 -0.787528 -0.204249 -14.359133 17.738919 11.122359 0.000000 0.000000 0.000000
